<svg width="59" height="59" viewBox="0 0 59 59" fill="none" xmlns="http://www.w3.org/2000/svg">
<path d="M59 13.5287C59 6.06825 52.9353 0 45.4792 0C38.023 0 31.9583 6.06825 31.9583 13.5287V27.0575H45.4792C52.9353 27.0575 59 20.9892 59 13.5287ZM46.7083 7.34487H49.1667V14.7242H51.625V7.34487H54.0833V19.6437H51.625V17.1839H49.1667C47.8121 17.1839 46.7083 16.0795 46.7083 14.7242V7.34487ZM44.25 17.1839V19.6437H36.875V18.4138C36.875 15.9541 38.5122 14.7266 39.825 13.7403C41.0812 12.7982 41.7917 12.2054 41.7917 11.0345C41.7917 10.3556 41.241 9.80464 40.5625 9.80464C39.884 9.80464 39.3333 10.3556 39.3333 11.0345H36.875C36.875 9.00029 38.5295 7.34487 40.5625 7.34487C42.5955 7.34487 44.25 9.00029 44.25 11.0345C44.25 13.4943 42.6127 14.7217 41.3 15.7081C40.5674 16.2591 40.0192 16.6871 39.6922 17.1839H44.25ZM34.9083 39.9663C27.6317 36.8129 22.42 31.5859 19.0447 24.0565L27.4178 15.6786L12.0139 0.265655L4.2185 8.06312C1.49958 10.7812 0 14.4561 0 18.4138C0 36.2422 22.7445 59 40.5625 59C44.518 59 48.1932 57.502 50.9047 54.7815L58.7001 46.9816L43.2986 31.5711L34.9059 39.9688L34.9083 39.9663ZM47.4262 51.3034C45.6414 53.0941 43.2027 54.0805 40.5625 54.0805C25.2397 54.0805 4.91667 33.748 4.91667 18.4138C4.91667 15.772 5.90246 13.3319 7.69212 11.5437L12.0114 7.22188L20.4607 15.6761L13.243 22.898L13.8478 24.4058C17.8819 34.454 24.866 41.4373 34.6133 45.1589L36.1006 45.7271L43.2962 38.5274L51.7455 46.9816L47.4237 51.3058L47.4262 51.3034Z" fill="#5695D0"/>
</svg>
