<svg width="71" height="71" viewBox="0 0 71 71" fill="none" xmlns="http://www.w3.org/2000/svg">
<path d="M30.2189 14.3367L23.6746 10.6948V8.87537H32.2515L34.571 0H36.4882L38.8077 8.87537H47.3373V10.683L40.8373 14.4491L43.4527 22.3955L41.9615 23.428L35.5325 18.4578L29.074 23.4487L27.6538 22.3778L30.2248 14.3396L30.2189 14.3367ZM19.7781 31.2679L17.1627 23.3215L23.6627 19.5554V17.7478H15.1331L12.8136 8.87241H10.8965L8.57692 17.7478H0V19.5672L6.54438 23.2091L3.97337 31.2472L5.39349 32.3182L11.8521 27.3273L18.2811 32.2975L19.7722 31.265L19.7781 31.2679ZM71 17.7478H62.4704L60.1509 8.87241H58.2337L55.9142 17.7478H47.3373V19.5672L53.8817 23.2091L51.3106 31.2472L52.7308 32.3182L59.1894 27.3273L65.6183 32.2975L67.1095 31.265L64.4941 23.3186L70.9941 19.5524V17.7448L71 17.7478ZM44.3757 53.2493H26.6243C21.7308 53.2493 17.7485 57.2313 17.7485 62.1246V71H23.6657V62.1246C23.6657 60.4916 24.9941 59.1662 26.6243 59.1662H44.3757C46.0059 59.1662 47.3343 60.4916 47.3343 62.1246V71H53.2515V62.1246C53.2515 57.2313 49.2692 53.2493 44.3757 53.2493ZM23.6657 38.457C23.6657 31.9306 28.9734 26.6231 35.5 26.6231C42.0266 26.6231 47.3343 31.9306 47.3343 38.457C47.3343 44.9833 42.0266 50.2908 35.5 50.2908C28.9734 50.2908 23.6657 44.9833 23.6657 38.457ZM29.5828 38.457C29.5828 41.7202 32.2367 44.3739 35.5 44.3739C38.7633 44.3739 41.4172 41.7202 41.4172 38.457C41.4172 35.1938 38.7633 32.5401 35.5 32.5401C32.2367 32.5401 29.5828 35.1938 29.5828 38.457Z" fill="#5695D0"/>
</svg>
