<svg width="137" height="65" viewBox="0 0 137 65" fill="none" xmlns="http://www.w3.org/2000/svg">
<path d="M117.45 27.6093L117.397 20.1918C117.391 19.4914 117.068 18.8607 116.632 18.49C116.085 18.0248 115.372 17.888 114.657 18.0002C113.533 18.1767 112.677 19.0071 112.669 20.1959L112.618 27.6148L108.792 27.5874L108.785 9.80566L112.625 9.81797L112.63 16.3134C113.702 14.985 115.171 14.4242 116.799 14.5227C119.244 14.6704 120.98 16.3503 121.22 18.8415L121.246 27.623L117.447 27.6093H117.45Z" fill="#5695D0"/>
<path d="M91.3958 23.5298C92.2234 24.1468 92.7953 24.9293 93.5504 25.6215C91.564 28.0525 87.8785 28.411 85.1165 27.3781C82.9331 26.5614 81.4789 24.6872 81.1341 22.3642C80.7825 20.0003 81.5281 17.5788 83.4037 16.0384C85.5378 14.286 88.5667 14.0233 91.0168 15.2436C93.5559 16.5077 94.6011 19.635 94.2057 22.3889L84.9277 22.4203C85.1124 23.7719 86.3299 24.6762 87.698 24.8459C89.066 25.0155 90.263 24.5066 91.3971 23.5325V23.5298H91.3958ZM90.471 19.9059C90.3807 18.5502 89.5106 17.7239 88.3478 17.4735C86.6993 17.1493 85.0919 18.2642 84.8908 19.9428L90.471 19.9072V19.9059Z" fill="#5695D0"/>
<path d="M78.6348 27.6024L74.7509 27.6107L74.7372 13.4474L69.4333 13.3749L69.4156 9.9151L84.0453 9.911L84.0385 13.3981L78.6826 13.4323L78.6348 27.6024Z" fill="#5695D0"/>
<path d="M100.003 23.6392C101.519 25.2015 103.831 24.7911 105.151 23.17L107.706 25.4095C105.943 27.5641 103.176 28.307 100.499 27.7392C96.9445 26.9855 94.7365 23.7966 95.2659 20.2027C95.6025 17.9154 96.9678 16.0152 99.1416 15.1068C101.987 13.918 105.744 14.3804 107.664 17.0467L105.158 19.2314C103.923 17.6213 101.536 17.2491 100.042 18.7348C98.7503 20.018 98.6983 22.2958 100.002 23.6392H100.003Z" fill="#5695D0"/>
<path d="M100.608 39.9777C101.023 42.3964 102.886 44.0285 105.268 44.1926C107.008 44.3116 108.548 43.5182 109.825 42.3006L112.308 44.7412C110.168 47.2201 106.991 48.1011 103.854 47.6114C99.3194 46.9027 96.2153 43.0763 96.5218 38.4948C96.7201 35.533 98.1921 32.8626 100.883 31.4453C104.451 29.5642 109.417 29.9062 112.24 33.2046L109.926 35.7587C108.057 33.8899 105.218 33.0609 102.883 34.548C101.062 35.7067 100.237 37.8217 100.607 39.9804V39.9777H100.608Z" fill="#272828"/>
<path d="M114.531 47.0149C113.201 46.2994 112.615 45.0969 112.637 43.6919C112.665 41.9326 113.777 40.5468 115.486 40.0447C117.168 39.5495 118.882 39.6795 120.72 40.0871C120.981 38.8176 120.085 37.8395 118.822 37.6726C117.372 37.481 116.007 37.9845 114.749 38.6617L113.19 36.2922C115.539 34.7299 118.373 34.1499 121.04 34.968C122.907 35.5412 124.215 36.979 124.235 38.9722L124.323 47.3829H120.907L120.747 46.2775C119.062 47.7796 116.551 48.0997 114.532 47.0149H114.531ZM120.254 44.3472C120.81 43.7412 120.867 42.9847 120.767 42.2651C119.389 41.9203 116.473 41.581 116.189 43.391C116.1 43.9546 116.332 44.5456 116.873 44.8561C117.949 45.4745 119.376 45.3035 120.254 44.3458V44.3472Z" fill="#272828"/>
<path d="M136.111 30.5273H132.34V47.4048H136.111V30.5273Z" fill="#272828"/>
<path d="M126.34 30.53L126.316 47.4171L130.069 47.4223L130.092 30.5353L126.34 30.53Z" fill="#272828"/>
<path d="M87.4695 38.2937C87.3313 40.0215 86.3518 41.3977 84.6965 41.9217C83.3955 42.3335 81.9358 42.2815 80.7045 41.6358C79.03 40.7575 78.2817 38.8737 78.6634 37.0857C79.0451 35.2977 80.5677 33.9925 82.5021 33.8366C83.7771 33.734 85.0631 34.0021 86.0494 34.8271C87.0755 35.6848 87.5748 36.9653 87.4695 38.2937ZM85.033 37.8053C84.9413 36.5987 83.9906 35.7724 82.8961 35.849C81.747 35.9283 80.9768 36.9133 81.0164 38.0885C81.0575 39.3402 82.0274 40.2472 83.2409 40.1473C84.3709 40.0543 85.1301 39.0762 85.033 37.8066V37.8053Z" fill="#272828"/>
<path d="M76.6388 41.9284C75.8822 42.057 75.123 41.9695 74.257 41.9695L74.1968 36.039L73.0107 35.9542C72.9533 35.3208 72.971 34.7066 73.0189 34.0663L74.1599 33.9555C74.1763 32.9021 74.2803 31.8132 75.1093 31.1155C76.2434 30.1606 77.844 30.1359 79.1423 30.6517C78.9384 31.3302 78.7866 31.8939 78.5308 32.5027C77.9959 32.2851 77.4856 32.1853 77.0875 32.4808C76.7523 32.7297 76.4062 33.6299 76.8043 33.9008C77.279 34.21 77.9699 33.8625 78.5089 34.0212C78.5636 34.6792 78.5759 35.3359 78.5239 35.9665C77.8919 35.9952 77.3665 35.9077 76.6702 36.024L76.6388 41.9271V41.9284Z" fill="#272828"/>
<path d="M90.8923 41.9559L88.4777 41.9627L88.4654 34.0268L90.8116 33.9925L90.9443 35.1116C91.642 34.3017 92.5559 33.7176 93.7201 33.8585C93.8076 34.6451 93.7679 35.3729 93.7201 36.1458C92.471 36.0419 90.8951 36.5262 90.8951 37.9421V41.9545H90.8923V41.9559Z" fill="#272828"/>
<path d="M41.0972 44.2843C37.8618 41.6672 33.785 41.0133 29.8478 42.0448C29.3745 42.1693 29.0735 42.2733 28.6344 42.4648C25.1185 43.9915 22.5452 46.9219 21.7627 50.7811C15.7557 49.1928 10.3902 46.5251 6.07546 42.0612C2.75797 38.5522 0.618361 34.1813 0.120395 29.3481C-0.755148 20.8375 3.21353 13.2039 9.78147 8.04363C16.4862 2.77532 24.9434 0.219829 33.402 0.0077835C35.0792 -0.0346256 36.5567 0.102178 38.1928 0.27455C42.2792 0.70685 46.1904 1.88473 49.8772 3.71653C58.3071 7.90546 64.3442 15.5446 65.2635 25.1003C66.0433 33.195 63.1253 41.722 58.9528 48.5868C55.3945 54.3722 51.0798 59.5748 45.7896 64.1892L45.3313 52.5801C45.2013 49.2927 43.6034 46.4047 41.0958 44.2829H41.0972V44.2843ZM39.4679 38.5563C40 38.5563 40.2271 38.5522 40.6663 38.4688C42.8975 38.0392 44.8552 37.0515 46.2602 35.1992C49.2589 31.2496 49.2753 25.192 47.2383 20.8936C45.8894 18.0467 43.2614 16.1575 40.1231 16.0767L33.8931 15.9153L33.7919 12.4049C33.7741 11.7661 33.9916 11.5513 34.4595 11.2517C35.8056 10.3898 35.9588 8.60726 34.9711 7.49505C33.9834 6.38283 32.1858 6.41293 31.2213 7.55387C30.2569 8.69481 30.5455 10.4309 31.8069 11.2681C32.1708 11.5089 32.3664 11.7702 32.3937 12.2312C32.4676 13.4706 32.3978 14.6362 32.2665 15.9235L27.2787 16.0083C21.656 16.1041 18.2551 19.7636 17.8638 25.1181C17.6819 27.6175 17.764 30.0759 18.5451 32.4562C19.697 35.968 22.7039 38.5344 26.41 38.5399L39.4692 38.5577H39.4679V38.5563Z" fill="#5695D0"/>
<path d="M39.4679 38.5563L26.4086 38.5385C22.7012 38.5331 19.6956 35.968 18.5437 32.4549C17.7626 30.0745 17.6805 27.6161 17.8625 25.1167C18.2537 19.7609 21.6546 16.1027 27.2773 16.007L32.2651 15.9221C32.3965 14.6348 32.4662 13.4693 32.3924 12.2298C32.365 11.7688 32.168 11.5075 31.8055 11.2667C30.5455 10.4295 30.2432 8.70712 31.22 7.5525C32.1967 6.39788 33.9629 6.35957 34.9697 7.49368C35.9766 8.62778 35.8043 10.3884 34.4581 11.2503C33.9916 11.5499 33.7727 11.7647 33.7905 12.4036L33.8917 15.9139L40.1218 16.0754C43.2601 16.1575 45.888 18.0467 47.2369 20.8922C49.2739 25.1906 49.2575 31.2483 46.2588 35.1978C44.8538 37.0487 42.8962 38.0378 40.6649 38.4674C40.2271 38.5522 40 38.5563 39.4665 38.5549H39.4679V38.5563ZM29.6563 25.5217C29.6563 23.8636 28.3115 22.5202 26.6535 22.5202C24.9954 22.5202 23.6506 23.8636 23.6506 25.5217C23.6506 27.1797 24.9954 28.5231 26.6535 28.5231C28.3115 28.5231 29.6563 27.1797 29.6563 25.5217ZM42.6458 25.5258C42.6458 23.8745 41.3065 22.5352 39.6539 22.5352C38.0013 22.5352 36.662 23.8745 36.662 25.5258C36.662 27.177 38.0013 28.5163 39.6539 28.5163C41.3065 28.5163 42.6458 27.177 42.6458 25.5258ZM37.5663 32.3974C37.9056 31.8844 37.4869 31.2619 37.1709 31.1484C36.7072 30.9815 36.3569 31.2141 36.0409 31.5205C34.2365 33.2716 31.6016 33.1416 30.0147 31.2578C29.7411 30.9322 29.1104 31.1292 28.9504 31.3687C28.7903 31.6081 28.6152 32.1252 28.8492 32.4713C30.7083 35.2156 35.7673 35.1143 37.5649 32.396H37.5663V32.3974Z" fill="#FDFDFD"/>
<path d="M29.6563 25.5217C29.6563 27.1797 28.3115 28.5231 26.6535 28.5231C24.9954 28.5231 23.6506 27.1797 23.6506 25.5217C23.6506 23.8636 24.9954 22.5202 26.6535 22.5202C28.3115 22.5202 29.6563 23.8636 29.6563 25.5217ZM28.0667 24.3438C28.0667 23.9279 27.7288 23.59 27.3129 23.59C26.897 23.59 26.5591 23.9279 26.5591 24.3438C26.5591 24.7597 26.897 25.0976 27.3129 25.0976C27.7288 25.0976 28.0667 24.7597 28.0667 24.3438Z" fill="#5695D0"/>
<path d="M42.6458 25.5258C42.6458 27.177 41.3065 28.5163 39.6539 28.5163C38.0013 28.5163 36.662 27.177 36.662 25.5258C36.662 23.8745 38.0013 22.5352 39.6539 22.5352C41.3065 22.5352 42.6458 23.8745 42.6458 25.5258ZM39.7866 24.3383C39.7866 23.9279 39.4542 23.5968 39.0438 23.5968C38.6334 23.5968 38.3009 23.9293 38.3009 24.3383C38.3009 24.7474 38.6334 25.0798 39.0438 25.0798C39.4542 25.0798 39.7866 24.7474 39.7866 24.3383Z" fill="#5695D0"/>
<path d="M37.5663 32.3974C35.7687 35.1157 30.7083 35.2169 28.8505 32.4727C28.6166 32.1265 28.7862 31.6176 28.9518 31.37C29.1173 31.1224 29.7411 30.9336 30.0161 31.2592C31.603 33.1416 34.2379 33.2716 36.0423 31.5219C36.3583 31.2141 36.7085 30.9829 37.1723 31.1498C37.487 31.2633 37.9069 31.8858 37.5677 32.3988H37.5663V32.3974Z" fill="#5695D0"/>
<path d="M27.3129 25.0976C27.7292 25.0976 28.0667 24.7601 28.0667 24.3438C28.0667 23.9275 27.7292 23.59 27.3129 23.59C26.8966 23.59 26.5591 23.9275 26.5591 24.3438C26.5591 24.7601 26.8966 25.0976 27.3129 25.0976Z" fill="#FDFDFD"/>
<path d="M39.0438 25.0798C39.4533 25.0798 39.7852 24.7478 39.7852 24.3383C39.7852 23.9288 39.4533 23.5968 39.0438 23.5968C38.6343 23.5968 38.3023 23.9288 38.3023 24.3383C38.3023 24.7478 38.6343 25.0798 39.0438 25.0798Z" fill="#FDFDFD"/>
</svg>
