<svg width="64" height="64" viewBox="0 0 64 64" fill="none" xmlns="http://www.w3.org/2000/svg">
<path d="M34.6662 2.66667C34.6662 1.19467 35.8582 0 37.3328 0H45.3327C51.2153 0 55.9993 4.784 55.9993 10.6667V15.8533L59.4685 12.4613C60.5245 11.4293 62.2125 11.456 63.2392 12.504C64.2711 13.5573 64.2498 15.2453 63.1965 16.2747L56.4552 22.8667C55.6019 23.72 54.4713 24.1467 53.3406 24.1467C52.202 24.1467 51.0607 23.7147 50.1913 22.848L43.4688 16.2747C42.4154 15.2453 42.3968 13.5573 43.4261 12.504C44.4554 11.456 46.1487 11.432 47.1967 12.4613L50.666 15.8533V10.6667C50.666 7.72533 48.274 5.33333 45.3327 5.33333H37.3328C35.8582 5.33333 34.6662 4.13867 34.6662 2.66667ZM55.5966 32.008C53.4526 32.1067 51.4767 33.0373 50.0367 34.624L41.4394 44.072C39.9701 41.6427 37.3302 39.9973 34.2875 39.9973H10.6665C4.78394 40 0 44.784 0 50.6667V61.3333C0 62.8053 1.19465 64 2.66663 64C4.13861 64 5.33326 62.8053 5.33326 61.3333V50.6667C5.33326 47.7253 7.72523 45.3333 10.6665 45.3333H34.2875C35.9649 45.3333 37.3328 46.6987 37.3328 48.3787C37.3328 49.8827 36.2075 51.1813 34.7195 51.3947L20.9571 53.36C19.5011 53.568 18.4878 54.9173 18.6958 56.376C18.9037 57.8347 20.2611 58.848 21.7117 58.6373L35.4742 56.672C38.5995 56.2267 41.1248 54.0453 42.1568 51.2053L53.9806 38.2133C54.4633 37.68 55.1273 37.3707 55.8446 37.336C56.5699 37.3333 57.2552 37.552 57.7859 38.0347C58.8712 39.0267 58.9592 40.7253 57.9779 41.824L42.1754 59.56C41.1968 60.6587 41.2955 62.344 42.3941 63.3253C42.9008 63.7787 43.5354 64 44.1674 64C44.9007 64 45.6314 63.6987 46.1594 63.1067L61.9592 45.3733C64.8765 42.1067 64.6151 37.0453 61.3778 34.0933C59.7912 32.6507 57.7619 31.888 55.5939 32.008H55.5966ZM33.0209 29.4587L35.9515 30.6933L37.1222 33.6187C37.3755 34.2507 37.9888 34.6667 38.6688 34.6667C39.3488 34.6667 39.9648 34.2507 40.2155 33.6187L41.3781 30.712L44.2847 29.5493C44.9167 29.296 45.3327 28.6827 45.3327 28.0027C45.3327 27.3227 44.9167 26.7067 44.2847 26.456L41.3781 25.2933L40.2155 22.3867C39.9621 21.7547 39.3488 21.3387 38.6688 21.3387C37.9888 21.3387 37.3728 21.7547 37.1222 22.3867L35.9675 25.2773L33.0822 26.3707C32.4449 26.6107 32.0182 27.216 32.0049 27.8987C31.9916 28.5813 32.3969 29.2 33.0236 29.464L33.0209 29.4587ZM0 16C0 7.16267 7.16257 0 15.9998 0C24.837 0 31.9996 7.16267 31.9996 16C31.9996 24.8373 24.837 32 15.9998 32C7.16257 32 0 24.8373 0 16ZM11.8585 17.344L19.3011 18.8347C20.1117 19 20.6717 19.792 20.5037 20.64C20.3597 21.368 19.6824 21.8667 18.9411 21.8667H12.7172C12.1758 21.8667 11.6852 21.6347 11.3439 21.264C10.9332 20.8187 10.1785 20.5333 9.57321 20.5333C7.82656 20.5333 6.87991 22.568 7.99456 23.9093C9.11988 25.2667 10.8185 26.1307 12.7145 26.1307H13.8638V27.1973C13.8638 28.376 14.8185 29.3307 15.9971 29.3307C17.1758 29.3307 18.1304 28.376 18.1304 27.1973V26.1307H18.8771C21.7864 26.1307 24.333 24.0373 24.741 21.1573C25.1783 18.0693 23.1064 15.2453 20.1411 14.6533L12.6958 13.1627C11.8852 13 11.3252 12.2027 11.4985 11.3547C11.6452 10.6293 12.3225 10.1333 13.0638 10.1333H19.2157C19.7571 10.1333 20.2477 10.3653 20.5891 10.736C20.9997 11.1813 21.7544 11.4667 22.3597 11.4667C24.1063 11.4667 25.053 9.432 23.9383 8.09067C22.813 6.73333 21.1144 5.86933 19.2184 5.86933H18.1384V4.80267C18.1384 3.624 17.1838 2.66933 16.0051 2.66933C14.8265 2.66933 13.8718 3.624 13.8718 4.80267V5.86933H13.1252C10.2159 5.86933 7.66923 7.96533 7.26124 10.8453C6.82658 13.9333 8.89588 16.7547 11.8612 17.3493L11.8585 17.344Z" fill="#007DBA"/>
</svg>
