<svg width="74" height="74" viewBox="0 0 74 74" fill="none" xmlns="http://www.w3.org/2000/svg">
<path fill-rule="evenodd" clip-rule="evenodd" d="M36.811 1.80316e-06H37.189C41.896 -6.7034e-05 45.69 -0.000135707 48.6741 0.401048C51.7721 0.817581 54.3804 1.70864 56.4524 3.78037C58.999 6.32728 59.7868 9.72384 60.0646 13.9376C60.9079 13.9938 61.6998 14.0688 62.4415 14.1685C65.5396 14.585 68.1478 15.4761 70.2198 17.5478C72.2915 19.6195 73.1826 22.228 73.599 25.3261C74 28.3101 74 32.104 74 36.811V37.189C74 41.896 74 45.69 73.599 48.6741C73.1826 51.7721 72.2915 54.3804 70.2198 56.4524C67.6728 58.999 64.2761 59.7868 60.0625 60.0646C60.0061 60.9079 59.9314 61.6998 59.8316 62.4415C59.4151 65.5396 58.524 68.1478 56.4524 70.2198C54.3804 72.2915 51.7721 73.1826 48.6741 73.599C45.69 74 41.896 74 37.189 74H36.811C32.104 74 28.3101 74 25.3261 73.599C22.228 73.1826 19.6195 72.2915 17.5478 70.2198C15.4761 68.1478 14.585 65.5396 14.1685 62.4415C14.0688 61.6998 13.9938 60.9079 13.9375 60.0646C9.72384 59.7868 6.32728 58.999 3.78037 56.4524C1.70864 54.3804 0.817581 51.7721 0.401048 48.6741C-0.000135707 45.69 -6.7034e-05 41.896 1.80316e-06 37.189V36.811C-6.7034e-05 32.104 -0.000135707 28.3101 0.401048 25.3261C0.817581 22.228 1.70864 19.6195 3.78037 17.5478C5.85209 15.4761 8.46058 14.585 11.5586 14.1685C12.3003 14.0688 13.092 13.9938 13.9354 13.9376C14.2132 9.72384 15.0009 6.32728 17.5478 3.78037C19.6195 1.70864 22.228 0.817581 25.3261 0.401048C28.3101 -0.000135707 32.104 -6.7034e-05 36.811 1.80316e-06ZM19.1269 13.7776C20.3554 13.7674 21.6601 13.7674 23.0437 13.7674H50.9564C52.34 13.7674 53.6445 13.7674 54.8732 13.7776C54.591 10.2639 53.9563 8.58579 52.8016 7.43101C51.8489 6.47844 50.5117 5.85736 47.9861 5.51782C45.3861 5.16826 41.9404 5.16279 37 5.16279C32.0596 5.16279 28.6138 5.16826 26.014 5.51782C23.4884 5.85736 22.151 6.47844 21.1985 7.43101C20.0437 8.58579 19.409 10.2639 19.1269 13.7776ZM13.7776 54.8732C13.7674 53.6445 13.7674 52.34 13.7674 50.9564V46.4651H12.907C11.4813 46.4651 10.3256 45.3093 10.3256 43.8837C10.3256 42.4581 11.4813 41.3023 12.907 41.3023H61.093C62.5186 41.3023 63.6744 42.4581 63.6744 43.8837C63.6744 45.3093 62.5186 46.4651 61.093 46.4651H60.2326V50.9564C60.2326 52.34 60.2326 53.6445 60.2226 54.8732C63.736 54.591 65.4143 53.9563 66.569 52.8016C67.5217 51.8489 68.1426 50.5117 68.4824 47.9861C68.8317 45.3861 68.8372 41.9404 68.8372 37C68.8372 32.0596 68.8317 28.6138 68.4824 26.014C68.1426 23.4885 67.5217 22.151 66.569 21.1985C65.6163 20.2459 64.2792 19.6248 61.7535 19.2853C59.1535 18.9357 55.7079 18.9302 50.7674 18.9302H23.2326C18.292 18.9302 14.8464 18.9357 12.2466 19.2853C9.72102 19.6248 8.38358 20.2459 7.43101 21.1985C6.47844 22.151 5.85736 23.4885 5.51782 26.014C5.16826 28.6138 5.16279 32.0596 5.16279 37C5.16279 41.9404 5.16826 45.3861 5.51782 47.9861C5.85736 50.5117 6.47844 51.8489 7.43101 52.8016C8.58579 53.9563 10.2639 54.591 13.7776 54.8732ZM55.0698 46.4651H18.9302V50.7674C18.9302 55.7079 18.9357 59.1535 19.2853 61.7535C19.6248 64.2792 20.2459 65.6163 21.1985 66.569C22.151 67.5217 23.4885 68.1426 26.014 68.4824C28.6138 68.8317 32.0596 68.8372 37 68.8372C41.9404 68.8372 45.3861 68.8317 47.9861 68.4824C50.5117 68.1426 51.8489 67.5217 52.8016 66.569C53.7543 65.6163 54.3752 64.2792 54.7149 61.7535C55.0643 59.1535 55.0698 55.7079 55.0698 50.7674V46.4651ZM13.7674 30.1163C13.7674 28.6906 14.9232 27.5349 16.3488 27.5349H26.6744C28.1001 27.5349 29.2558 28.6906 29.2558 30.1163C29.2558 31.5419 28.1001 32.6977 26.6744 32.6977H16.3488C14.9232 32.6977 13.7674 31.5419 13.7674 30.1163ZM24.093 53.5378C24.093 52.1122 25.2488 50.9564 26.6744 50.9564H47.3256C48.7512 50.9564 49.907 52.1122 49.907 53.5378C49.907 54.9634 48.7512 56.1192 47.3256 56.1192H26.6744C25.2488 56.1192 24.093 54.9634 24.093 53.5378ZM24.093 62.1424C24.093 60.7168 25.2488 59.561 26.6744 59.561H40.4419C41.8675 59.561 43.0233 60.7168 43.0233 62.1424C43.0233 63.5681 41.8675 64.7238 40.4419 64.7238H26.6744C25.2488 64.7238 24.093 63.5681 24.093 62.1424Z" fill="#007DBA"/>
</svg>
