<svg width="71" height="72" viewBox="0 0 71 72" fill="none" xmlns="http://www.w3.org/2000/svg">
<path d="M70.2949 19.7932L65.6299 23.648L67.5586 29.6088C67.8219 30.4157 67.5556 31.3037 66.8901 31.8227C66.2245 32.3417 65.3104 32.3777 64.6093 31.9157L59.1782 28.3278L53.8388 31.9517C53.5075 32.1767 53.1229 32.2907 52.7413 32.2907C52.3242 32.2907 51.9071 32.1557 51.558 31.8917C50.8865 31.3817 50.6085 30.4997 50.8599 29.6898L52.7147 23.657L48.026 19.7872C47.3959 19.2442 47.1652 18.3592 47.4521 17.5733C47.7361 16.7873 48.4757 16.2623 49.3039 16.2623H55.2232L57.3175 10.3016C57.6045 9.5186 58.341 8.99963 59.1664 8.99963C59.9917 8.99963 60.7283 9.5186 61.0152 10.3016L63.1096 16.2623H69.0288C69.8571 16.2623 70.5966 16.7873 70.8806 17.5763C71.1646 18.3652 70.9279 19.2502 70.2949 19.7932ZM24.3639 10.7876L29.0525 14.6574L27.1978 20.6901C26.9463 21.5001 27.2274 22.3821 27.8959 22.892C28.245 23.159 28.6621 23.291 29.0791 23.291C29.4607 23.291 29.8423 23.18 30.1766 22.952L35.5161 19.3282L40.9472 22.916C41.6483 23.378 42.5623 23.342 43.2279 22.823C43.8935 22.3041 44.1597 21.4161 43.8965 20.6091L41.9678 14.6484L46.6327 10.7935C47.2658 10.2536 47.4995 9.36561 47.2155 8.57664C46.9315 7.78768 46.192 7.2627 45.3637 7.2627H39.4445L37.3501 1.30195C37.0632 0.518978 36.3266 0 35.5013 0C34.6759 0 33.9394 0.518978 33.6524 1.30195L31.5581 7.2627H25.6388C24.8106 7.2627 24.074 7.78468 23.787 8.57364C23.5001 9.35961 23.7308 10.2446 24.3609 10.7876H24.3639ZM17.2821 31.9127C17.9832 32.3747 18.8972 32.3387 19.5628 31.8197C20.2284 31.3007 20.4946 30.4127 20.2314 29.6058L18.3026 23.645L22.9676 19.7902C23.6007 19.2502 23.8344 18.3622 23.5504 17.5733C23.2664 16.7843 22.5269 16.2593 21.6986 16.2593H15.7794L13.685 10.2986C13.3981 9.5156 12.6615 8.99662 11.8362 8.99662C11.0108 8.99662 10.2743 9.5156 9.98732 10.2986L7.89296 16.2593H1.97373C1.14545 16.2593 0.408871 16.7813 0.121931 17.5703C-0.165008 18.3562 0.0657268 19.2412 0.69581 19.7842L5.38446 23.654L3.52971 29.6868C3.27826 30.4967 3.55929 31.3787 4.22783 31.8887C4.57689 32.1557 4.99399 32.2877 5.41108 32.2877C5.79268 32.2877 6.17428 32.1767 6.50855 31.9487L11.848 28.3248L17.2821 31.9127ZM58.9918 52.7648L57.1016 62.3524C55.9952 67.9622 51.138 72 45.4998 72H20.7076C15.806 72 11.8332 67.9712 11.8332 63.0004V51.0009C11.8332 46.0301 15.806 42.0013 20.7076 42.0013H25.0147L31.5019 29.5548C32.0343 28.4988 32.7679 27.7128 33.5193 27.3979C34.1464 27.1339 34.7824 27.0019 35.4125 27.0019C37.43 27.0019 39.0924 28.3398 39.6486 30.4097C39.7137 30.6497 39.7965 31.2047 39.6279 32.2067L37.9121 42.0013H50.286C55.8858 42.0013 60.0893 47.197 58.9918 52.7648ZM20.7106 66.0003H23.6687V48.001H20.7106C19.0806 48.001 17.7524 49.3479 17.7524 51.0009V63.0004C17.7524 64.6533 19.0806 66.0003 20.7106 66.0003ZM52.5756 49.0989C52.2443 48.688 51.5048 48.001 50.289 48.001H29.585V66.0003H45.4968C48.307 66.0003 50.7475 63.9723 51.2977 61.1765L53.188 51.5888C53.4276 50.3769 52.907 49.5099 52.5756 49.0989Z" fill="#007DBA"/>
</svg>
