<svg width="60" height="72" viewBox="0 0 60 72" fill="none" xmlns="http://www.w3.org/2000/svg">
<path d="M29.7609 71.7996L28.7019 71.3299C27.5232 70.8123 0 58.382 0 35.8729V16.3553C0.00104931 14.4771 0.59469 12.6471 1.69638 11.1259C2.79808 9.60465 4.35165 8.46983 6.13587 7.88299L29.9165 0L53.6971 7.88299C55.4813 8.46983 57.0349 9.60465 58.1366 11.1259C59.2383 12.6471 59.8319 14.4771 59.833 16.3553V35.8729C59.833 61.5322 32.0465 71.0397 30.8618 71.4346L29.7609 71.7996ZM29.9165 6.27349L8.02958 13.5312C7.43408 13.7257 6.91541 14.1037 6.54783 14.611C6.18026 15.1183 5.98265 15.7289 5.9833 16.3553V35.8729C5.9833 52.309 25.2495 62.9712 30.0571 65.3735C34.8557 63.4439 53.8497 54.6096 53.8497 35.8729V16.3553C53.8503 15.7289 53.6527 15.1183 53.2851 14.611C52.9176 14.1037 52.3989 13.7257 51.8034 13.5312L29.9165 6.27349Z" fill="#5695D0"/>
</svg>
