<svg width="63" height="65" viewBox="0 0 63 65" fill="none" xmlns="http://www.w3.org/2000/svg">
<path d="M55.192 20.7136H53.9306V5.7998C53.9306 4.47649 53.0483 3.31565 51.7721 2.95528C37.755 -0.985095 25.2539 -0.985095 11.2338 2.95528C9.95765 3.31565 9.07529 4.47649 9.07529 5.7998V20.7136H7.81393C3.50576 20.7136 0 24.2109 0 28.5087V31.043C0 38.079 5.73831 43.8005 12.7883 43.8005H18.2039C19.178 44.4651 20.2173 45.05 21.3129 45.5492C22.894 46.267 23.7112 48.0451 23.2553 49.7731L20.7947 59.0924H15.9891C14.3517 59.0924 13.0282 60.4127 13.0282 62.0462C13.0282 63.6796 14.3517 65 15.9891 65H47.0109C48.6483 65 49.9718 63.6796 49.9718 62.0462C49.9718 60.4127 48.6483 59.0924 47.0109 59.0924H42.2053L39.7448 49.7761C39.2917 48.0452 40.106 46.267 41.6871 45.5492C42.7827 45.0529 43.822 44.4651 44.7961 43.8005H50.2117C57.2647 43.8005 63 38.076 63 31.043V28.5087C63 24.2109 59.4942 20.7136 55.1861 20.7136H55.192ZM5.92485 31.043V28.5087C5.92485 27.466 6.77168 26.6212 7.81689 26.6212H9.07825C9.0901 30.6945 10.3011 34.5876 12.433 37.884C8.81177 37.698 5.92485 34.6998 5.92485 31.043ZM39.2384 40.1733C35.025 42.0844 32.8309 46.7543 34.0212 51.2796L36.0821 59.0953H26.9209L28.9817 51.2796C30.172 46.7573 27.978 42.0903 23.7645 40.1762C18.4378 37.757 14.9942 32.4106 14.9942 26.5592V8.06832C26.3228 5.20609 36.6743 5.20609 48.0028 8.06832V26.5562C48.0028 32.4077 44.5592 37.7541 39.2325 40.1733H39.2384ZM57.0811 31.043C57.0811 34.7028 54.1942 37.698 50.5729 37.884C52.7078 34.5876 53.9158 30.6915 53.9277 26.6212H55.189C56.2342 26.6212 57.0811 27.466 57.0811 28.5087V31.043Z" fill="#007DBA"/>
</svg>
