<svg width="62" height="58" viewBox="0 0 62 58" fill="none" xmlns="http://www.w3.org/2000/svg">
<path d="M62 42.4419C62 35.3145 59.2748 31.4385 55.5774 29.3548C55.273 9.06683 47.6583 0 31 0C14.3417 0 6.70727 9.08662 6.41982 29.4283C2.88018 31.4922 0 35.323 0 42.4419C0 56.2669 10.2525 57.8643 17.9659 57.8643C19.1805 57.8643 20.2571 57.084 20.6404 55.9248C23.5149 47.2312 23.5149 37.6498 20.6404 28.9562C20.2571 27.7999 19.1805 27.0167 17.9659 27.0167C16.6301 27.0167 14.4742 27.0167 12.1125 27.4351C12.8706 9.45415 20.2345 5.64874 31 5.64874C41.7655 5.64874 49.1322 9.45698 49.8875 27.4465C47.9091 27.11 45.8969 27.0167 44.0341 27.0167C42.8195 27.0167 41.7429 27.797 41.3596 28.9562C38.8768 36.468 38.5415 44.6387 40.3479 52.3315C37.3494 52.3824 34.4776 52.2947 31.7694 52.0742C30.1884 51.9583 28.8582 53.1089 28.7342 54.6667C28.6102 56.2217 29.7656 57.5844 31.3156 57.7116C33.6801 57.9011 36.1573 58 38.7246 58C40.4804 58 42.2784 57.9548 44.1102 57.8643C48.6277 57.8643 62 57.7795 62 42.4419ZM15.8861 52.1618C8.36436 51.7717 5.63636 49.0774 5.63636 42.4419C5.63636 35.8065 8.36436 33.1122 15.8861 32.722C17.5883 39.0578 17.5883 45.8232 15.8861 52.159V52.1618ZM46.1139 52.1618C44.4117 45.8261 44.4117 39.0578 46.1139 32.7248C53.6356 33.115 56.3636 35.8093 56.3636 42.4448C56.3636 49.0802 53.6356 51.7717 46.1139 52.1618Z" fill="#5695D0"/>
</svg>
