<svg width="32" height="32" viewBox="0 0 32 32" fill="none" xmlns="http://www.w3.org/2000/svg">
<path d="M30 11.9985H29.3333V10.6653C29.3333 6.98979 26.3427 3.9995 22.6667 3.9995H17.3333V1.33317C17.3333 0.597259 16.7373 0 16 0C15.2627 0 14.6667 0.597259 14.6667 1.33317V3.9995H9.33333C5.65733 3.9995 2.66667 6.98979 2.66667 10.6653V11.9985H2C0.897333 11.9985 0 12.8957 0 13.9983V17.9978C0 19.1003 0.897333 19.9975 2 19.9975H2.66667V21.3307C2.66667 25.0062 5.65733 27.9965 9.33333 27.9965H19.596L24.88 31.5187C25.36 31.8387 25.9133 32 26.468 32C26.932 32 27.396 31.888 27.8213 31.66C28.7533 31.1601 29.3333 30.1936 29.3333 29.135V19.9962H30C31.1027 19.9962 32 19.0989 32 17.9964V13.9969C32 12.8944 31.1027 11.9972 30 11.9972V11.9985ZM26.6667 29.1364C26.6667 29.1657 26.6667 29.255 26.5627 29.3097C26.456 29.367 26.3813 29.315 26.36 29.3003L20.74 25.5541C20.5213 25.4088 20.264 25.3302 20 25.3302H9.33333C7.128 25.3302 5.33333 23.5357 5.33333 21.3307V10.6653C5.33333 8.46028 7.128 6.66583 9.33333 6.66583H22.6667C24.872 6.66583 26.6667 8.46028 26.6667 10.6653V29.1364ZM9.33333 12.6651C9.33333 11.5612 10.2293 10.6653 11.3333 10.6653C12.4373 10.6653 13.3333 11.5612 13.3333 12.6651C13.3333 13.7689 12.4373 14.6648 11.3333 14.6648C10.2293 14.6648 9.33333 13.7689 9.33333 12.6651ZM22.6667 12.6651C22.6667 13.7689 21.7707 14.6648 20.6667 14.6648C19.5627 14.6648 18.6667 13.7689 18.6667 12.6651C18.6667 11.5612 19.5627 10.6653 20.6667 10.6653C21.7707 10.6653 22.6667 11.5612 22.6667 12.6651ZM22.4627 18.9243C22.8547 19.5482 22.6653 20.3708 22.0427 20.7614C20.66 21.6293 18.488 22.6638 16.0013 22.6638C13.5147 22.6638 11.3427 21.6293 9.96 20.7614C9.336 20.3708 9.148 19.5469 9.54 18.9243C9.932 18.3017 10.7547 18.1124 11.3773 18.503C12.464 19.1856 14.1493 19.9975 16.0027 19.9975C17.856 19.9975 19.54 19.1856 20.628 18.503C21.2493 18.1111 22.0747 18.3004 22.4653 18.9243H22.4627Z" fill="#286CAC"/>
</svg>
